<svg data-v-423bf9ae="" xmlns="http://www.w3.org/2000/svg" viewBox="0 0 438.25696541707043 60" class="font"><!----><!----><defs data-v-423bf9ae=""><linearGradient data-v-423bf9ae="" gradientTransform="rotate(25)" id="e9046df8-4c90-4c00-9e26-8ac4fda1e25d" x1="0%" y1="0%" x2="100%" y2="0%"><stop data-v-423bf9ae="" offset="0%" style="stop-color: rgb(120, 49, 146); stop-opacity: 1;"></stop><stop data-v-423bf9ae="" offset="100%" style="stop-color: rgb(89, 188, 200); stop-opacity: 1;"></stop></linearGradient></defs><g data-v-423bf9ae="" id="671fb832-d7cd-485e-a3e8-4aa0845e60a9" fill="url(#e9046df8-4c90-4c00-9e26-8ac4fda1e25d)" transform="matrix(5.617977869218204,0,0,5.617977869218204,-6.292134057361096,-0.7865167709286744)"><path d="M7.04 9.70L7.04 9.70L2.06 9.70L2.06 0.81C2.06 0.56 1.85 0.35 1.60 0.35C1.33 0.35 1.12 0.56 1.12 0.81L1.12 10.18C1.12 10.43 1.33 10.64 1.60 10.64L7.04 10.64C7.31 10.64 7.50 10.43 7.50 10.18C7.50 9.91 7.31 9.70 7.04 9.70ZM3.00 0.81L3.00 0.81L3.00 8.30C3.00 8.55 3.21 8.76 3.46 8.76L7.04 8.76C7.31 8.76 7.50 8.55 7.50 8.30C7.50 8.04 7.31 7.83 7.04 7.83L3.93 7.83L3.93 0.81C3.93 0.56 3.72 0.35 3.46 0.35C3.21 0.35 3.00 0.56 3.00 0.81ZM11.10 0.81L11.10 0.81L11.10 4.56C11.10 4.82 11.31 5.03 11.56 5.03L14.38 5.03C14.63 5.03 14.84 4.82 14.84 4.56L14.84 0.81C14.84 0.56 14.63 0.35 14.38 0.35C14.11 0.35 13.90 0.56 13.90 0.81L13.90 4.09L12.04 4.09L12.04 0.81C12.04 0.56 11.83 0.35 11.56 0.35C11.31 0.35 11.10 0.56 11.10 0.81ZM14.84 10.18L14.84 10.18L14.84 6.43C14.84 6.17 14.63 5.96 14.38 5.96L11.56 5.96C11.31 5.96 11.10 6.17 11.10 6.43L11.10 10.18C11.10 10.43 11.31 10.64 11.56 10.64C11.83 10.64 12.04 10.43 12.04 10.18L12.04 6.90L13.90 6.90L13.90 10.18C13.90 10.43 14.11 10.64 14.38 10.64C14.63 10.64 14.84 10.43 14.84 10.18ZM10.16 10.18L10.16 10.18L10.16 0.81C10.16 0.56 9.95 0.35 9.70 0.35C9.44 0.35 9.23 0.56 9.23 0.81L9.23 10.18C9.23 10.43 9.44 10.64 9.70 10.64C9.95 10.64 10.16 10.43 10.16 10.18ZM15.78 0.81L15.78 0.81L15.78 10.18C15.78 10.43 15.99 10.64 16.24 10.64C16.51 10.64 16.72 10.43 16.72 10.18L16.72 0.81C16.72 0.56 16.51 0.35 16.24 0.35C15.99 0.35 15.78 0.56 15.78 0.81ZM19.91 10.18L19.91 10.18L19.91 0.81C19.91 0.56 19.70 0.35 19.43 0.35C19.18 0.35 18.97 0.56 18.97 0.81L18.97 10.18C18.97 10.43 19.18 10.64 19.43 10.64C19.70 10.64 19.91 10.43 19.91 10.18ZM23.84 9.90L23.84 9.90L21.69 6.83C21.43 6.45 20.85 6.64 20.85 7.11L20.85 10.18C20.85 10.43 21.06 10.64 21.31 10.64C21.57 10.64 21.77 10.43 21.77 10.18L21.77 8.58L23.07 10.44C23.23 10.65 23.51 10.70 23.72 10.56C23.94 10.40 23.98 10.12 23.84 9.90ZM23.07 0.55L23.07 0.55L21.77 2.41L21.77 0.81C21.77 0.56 21.57 0.35 21.31 0.35C21.06 0.35 20.85 0.56 20.85 0.81L20.85 3.86C20.85 4.03 20.90 4.17 21.04 4.27C21.25 4.42 21.55 4.37 21.69 4.16L23.84 1.08C23.98 0.87 23.94 0.59 23.72 0.43C23.51 0.28 23.23 0.34 23.07 0.55ZM25.35 0.55L25.35 0.55L22.09 5.22C21.98 5.39 21.98 5.61 22.09 5.77L25.35 10.44C25.51 10.65 25.79 10.70 26.00 10.56C26.22 10.40 26.26 10.12 26.12 9.90L23.04 5.49L26.12 1.08C26.26 0.87 26.22 0.59 26.00 0.43C25.79 0.28 25.51 0.34 25.35 0.55ZM32.77 0.71L32.77 0.71C31.79 0.38 31.11 0.27 30.27 0.31C27.38 0.45 26.15 3.99 28.18 5.77C29.48 6.90 30.87 6.79 30.93 7.45C31.01 8.15 29.12 8.01 28.04 7.22C27.55 6.87 27.01 7.63 27.50 7.98C28.42 8.65 29.55 8.88 30.46 8.82C31.22 8.76 31.91 8.19 31.86 7.41C31.77 5.92 30.03 6.16 28.81 5.07C27.80 4.20 28.00 2.73 28.76 1.93C29.68 0.91 31.19 1.15 32.45 1.60C33.04 1.81 33.35 0.91 32.77 0.71ZM27.31 9.97L27.31 9.97C27.86 10.26 28.41 10.44 28.88 10.54C31.50 11.17 33.77 9.97 33.77 7.41C33.77 4.80 30.70 4.24 30.18 3.85C29.72 3.49 30.09 2.62 32.20 3.47C32.77 3.71 33.11 2.84 32.56 2.62C29.08 1.20 28.49 3.68 29.61 4.56C30.32 5.14 32.84 5.49 32.84 7.41C32.84 10.00 29.92 10.29 27.76 9.14C27.22 8.86 26.78 9.69 27.31 9.97ZM30.38 7.90L30.38 7.90L30.38 7.90L30.38 7.90ZM41.62 2.23L41.62 2.23L39.27 2.23C39.02 2.23 38.81 2.44 38.81 2.70L38.81 10.16C38.81 10.43 39.02 10.64 39.27 10.64C39.54 10.64 39.75 10.43 39.75 10.16L39.75 3.15L41.62 3.15C41.87 3.15 42.07 2.95 42.07 2.70C42.07 2.44 41.87 2.23 41.62 2.23ZM35.08 1.29L35.08 1.29L41.62 1.29C41.87 1.29 42.07 1.08 42.07 0.83C42.07 0.56 41.87 0.36 41.62 0.36L35.08 0.36C34.82 0.36 34.61 0.56 34.61 0.83C34.61 1.08 34.82 1.29 35.08 1.29ZM35.08 3.15L35.08 3.15L36.93 3.15L36.93 10.16C36.93 10.43 37.16 10.64 37.41 10.64C37.67 10.64 37.88 10.43 37.88 10.16L37.88 2.70C37.88 2.44 37.67 2.23 37.41 2.23L35.08 2.23C34.82 2.23 34.61 2.44 34.61 2.70C34.61 2.95 34.82 3.15 35.08 3.15ZM45.44 6.79L45.44 6.79C45.44 9.52 49.49 9.52 49.49 6.79L49.49 0.80C49.49 0.53 49.28 0.32 49.03 0.32C48.75 0.32 48.55 0.53 48.55 0.80L48.55 6.79C48.55 8.27 46.38 8.27 46.38 6.79L46.38 0.80C46.38 0.53 46.17 0.32 45.91 0.32C45.65 0.32 45.44 0.53 45.44 0.80ZM51.39 6.90L51.39 6.90L51.39 0.80C51.39 0.53 51.18 0.32 50.93 0.32C50.67 0.32 50.47 0.53 50.47 0.80L50.47 6.90C50.47 10.82 44.46 10.82 44.46 6.90L44.46 0.80C44.46 0.53 44.25 0.32 43.99 0.32C43.74 0.32 43.53 0.53 43.53 0.80L43.53 6.90C43.53 12.03 51.39 12.04 51.39 6.90ZM56.87 8.78L56.87 8.78C58.79 8.78 60.06 7.34 60.06 5.49C60.06 3.65 58.79 2.21 56.87 2.21L55.94 2.21C55.69 2.21 55.48 2.42 55.48 2.69L55.48 6.43C55.48 6.69 55.69 6.90 55.94 6.90C56.21 6.90 56.41 6.69 56.41 6.43L56.41 3.15L56.87 3.15C58.25 3.15 59.14 4.17 59.14 5.49C59.14 6.82 58.25 7.84 56.87 7.84L55.94 7.84C55.69 7.84 55.48 8.05 55.48 8.30C55.48 8.57 55.69 8.78 55.94 8.78ZM54.54 10.18L54.54 10.18L54.54 1.29L56.87 1.29C59.37 1.29 61.08 3.05 61.08 5.49C61.08 7.94 59.37 9.70 56.87 9.70L55.93 9.70C55.68 9.70 55.47 9.91 55.47 10.18C55.47 10.43 55.68 10.64 55.93 10.64L56.87 10.64C59.91 10.64 62.02 8.46 62.02 5.49C62.02 2.53 59.91 0.35 56.87 0.35L54.07 0.35C53.82 0.35 53.61 0.56 53.61 0.81L53.61 10.18C53.61 10.43 53.82 10.64 54.07 10.64C54.33 10.64 54.54 10.43 54.54 10.18ZM66.71 10.18L66.71 10.18L66.71 0.81C66.71 0.56 66.50 0.35 66.25 0.35C65.98 0.35 65.77 0.56 65.77 0.81L65.77 10.18C65.77 10.43 65.98 10.64 66.25 10.64C66.50 10.64 66.71 10.43 66.71 10.18ZM64.83 10.18L64.83 10.18L64.83 0.81C64.83 0.56 64.62 0.35 64.37 0.35C64.11 0.35 63.90 0.56 63.90 0.81L63.90 10.18C63.90 10.43 64.11 10.64 64.37 10.64C64.62 10.64 64.83 10.43 64.83 10.18ZM79.11 3.88L79.11 3.88C78.76 2.77 78.06 1.83 77.15 1.16C76.24 0.52 75.15 0.14 73.95 0.14C66.85 0.14 66.85 10.82 73.95 10.82C75.15 10.82 76.24 10.43 77.15 9.79C78.06 9.13 78.76 8.18 79.11 7.08C79.18 6.83 79.06 6.55 78.81 6.48C78.55 6.41 78.27 6.54 78.20 6.79C77.91 7.70 77.35 8.47 76.58 9.02C75.85 9.55 74.94 9.86 73.95 9.86C68.11 9.86 68.11 1.09 73.95 1.09C74.94 1.09 75.85 1.41 76.58 1.93C77.35 2.49 77.91 3.26 78.20 4.16C78.27 4.41 78.55 4.55 78.81 4.47C79.06 4.40 79.18 4.13 79.11 3.88ZM71.06 7.17L71.06 7.17C71.36 7.69 71.78 8.12 72.28 8.43C72.79 8.71 73.36 8.88 73.95 8.88C74.89 8.88 75.73 8.50 76.34 7.87C76.93 7.25 77.31 6.41 77.31 5.47C77.31 4.54 76.93 3.70 76.34 3.08C75.73 2.46 74.89 2.09 73.95 2.09C73.36 2.09 72.79 2.24 72.28 2.53C71.78 2.83 71.36 3.26 71.06 3.78C70.92 4.02 71.01 4.31 71.23 4.44C71.47 4.56 71.75 4.48 71.88 4.24C72.10 3.88 72.41 3.57 72.77 3.36C73.12 3.15 73.51 3.04 73.95 3.04C74.62 3.04 75.22 3.32 75.64 3.75C76.09 4.19 76.36 4.80 76.36 5.47C76.36 6.16 76.09 6.78 75.64 7.21C75.22 7.66 74.62 7.92 73.95 7.92C73.51 7.92 73.11 7.80 72.77 7.59C72.41 7.39 72.10 7.07 71.88 6.71C71.75 6.47 71.47 6.40 71.23 6.52C71.01 6.66 70.92 6.93 71.06 7.17Z"></path></g><!----><!----></svg>